<svg width="32" height="32" viewBox="0 0 32 32" fill="none" xmlns="http://www.w3.org/2000/svg">
<path fill-rule="evenodd" clip-rule="evenodd" d="M0 16C0 7.16344 7.16344 0 16 0C24.8366 0 32 7.16344 32 16C32 24.8366 24.8366 32 16 32C7.16344 32 0 24.8366 0 16ZM18.3722 12.4466H22.8917V11.1517H18.3722V12.4466ZM22.4934 13.5336C21.9495 13.293 21.3384 13.1722 20.6591 13.1722C19.5161 13.1722 18.5879 13.5296 17.8705 14.2394C17.155 14.9512 16.7968 15.9738 16.7968 17.3072C16.7968 18.7288 17.1921 19.7564 17.9879 20.3869C18.7796 21.0185 19.6957 21.3333 20.7343 21.3333C21.9916 21.3333 22.97 20.9591 23.6684 20.2117C24.1159 19.7405 24.3688 19.2762 24.424 18.8209H22.3418C22.2214 19.0466 22.0809 19.2228 21.9214 19.3505C21.6314 19.5851 21.2531 19.7029 20.7905 19.7029C20.351 19.7029 19.9767 19.6059 19.6656 19.4128C19.1519 19.103 18.8829 18.5615 18.8488 17.7903H24.5314C24.5404 17.1261 24.5183 16.6153 24.4631 16.2628C24.3688 15.66 24.1621 15.1293 23.84 14.672C23.4868 14.1533 23.0382 13.7731 22.4934 13.5336ZM15.2966 11.7754C14.7598 11.0547 13.8496 10.6855 12.5632 10.6667H7.46667V21.071H12.219C12.7549 21.071 13.2506 21.0255 13.7091 20.9314C14.1677 20.8364 14.5641 20.6631 14.9002 20.4087C15.1993 20.187 15.4481 19.9138 15.6468 19.59C15.9609 19.101 16.1174 18.5476 16.1174 17.9309C16.1174 17.333 15.98 16.8241 15.707 16.4064C15.4311 15.9876 15.0257 15.6817 14.4878 15.4877C14.842 15.3095 15.11 15.1115 15.2926 14.8957C15.6187 14.5096 15.7803 13.9978 15.7803 13.3633C15.7803 12.7465 15.6187 12.2179 15.2966 11.7754Z" fill="url(#paint0_linear_111_70)"/>
<path fill-rule="evenodd" clip-rule="evenodd" d="M9.56889 12.4733H11.8648C12.3695 12.4733 12.785 12.5277 13.1121 12.6356C13.4894 12.792 13.678 13.1118 13.678 13.5978C13.678 14.0334 13.5345 14.3383 13.2496 14.5106C12.9626 14.6828 12.5903 14.769 12.1337 14.769H9.56889V12.4733ZM19.4429 15.2718C19.7309 14.9788 20.1383 14.8323 20.66 14.8323C21.1417 14.8323 21.5441 14.9699 21.8712 15.2461C22.1943 15.5243 22.377 15.9282 22.4141 16.4627H18.899C18.9732 15.9618 19.1549 15.5649 19.4429 15.2718ZM9.56889 16.4905H12.1658C12.6174 16.4944 12.9696 16.5538 13.2205 16.6667C13.669 16.8696 13.8918 17.2408 13.8918 17.7833C13.8918 18.4228 13.661 18.8545 13.1984 19.0821C12.9445 19.2039 12.5873 19.2653 12.1297 19.2653H9.56889V16.4905Z" fill="url(#paint1_linear_111_70)"/>
<defs>
<linearGradient id="paint0_linear_111_70" x1="42.5206" y1="-11.7358" x2="7.59628" y2="34.9584" gradientUnits="userSpaceOnUse">
<stop stop-color="white"/>
<stop offset="0.931499" stop-color="white" stop-opacity="0.1"/>
</linearGradient>
<linearGradient id="paint1_linear_111_70" x1="24.5" y1="3.99996" x2="21.1104" y2="25.1783" gradientUnits="userSpaceOnUse">
<stop stop-color="white"/>
<stop offset="0.948533" stop-color="white" stop-opacity="0.1"/>
</linearGradient>
</defs>
</svg>
