<svg width="32" height="32" viewBox="0 0 32 32" fill="none" xmlns="http://www.w3.org/2000/svg">
<path fill-rule="evenodd" clip-rule="evenodd" d="M16.0288 0.119995C7.20978 0.119995 0.0584412 7.39193 0.0584412 16.363C0.0584412 23.5397 4.63444 29.6284 10.98 31.7763C11.7781 31.9266 12.0711 31.4239 12.0711 30.9949C12.0711 30.6075 12.0563 29.328 12.0495 27.9707C7.60648 28.9533 6.66895 26.0542 6.66895 26.0542C5.94247 24.1767 4.89573 23.6775 4.89573 23.6775C3.44674 22.6693 5.00495 22.69 5.00495 22.69C6.60866 22.8043 7.45309 24.3639 7.45309 24.3639C8.87748 26.8472 11.1892 26.1292 12.1005 25.7142C12.2438 24.6646 12.6577 23.9475 13.1144 23.5422C9.5672 23.1314 5.83828 21.7386 5.83828 15.5147C5.83828 13.7413 6.46214 12.2923 7.48376 11.1547C7.31795 10.7453 6.7713 9.09351 7.63847 6.85612C7.63847 6.85612 8.97957 6.41956 12.0315 8.52112C13.3054 8.16122 14.6716 7.98073 16.0288 7.97455C17.386 7.98073 18.7533 8.16122 20.0296 8.52112C23.0778 6.41956 24.4171 6.85612 24.4171 6.85612C25.2863 9.09351 24.7394 10.7453 24.5736 11.1547C25.5976 12.2923 26.2173 13.7413 26.2173 15.5147C26.2173 21.7534 22.4812 23.1271 18.925 23.5293C19.4978 24.0333 20.0082 25.0218 20.0082 26.5373C20.0082 28.7104 19.9897 30.4596 19.9897 30.9949C19.9897 31.4271 20.2772 31.9336 21.0867 31.7741C27.4288 29.6239 31.9989 23.5373 31.9989 16.363C31.9989 7.39193 24.8487 0.119995 16.0288 0.119995Z" fill="url(#paint0_linear_111_66)"/>
<path fill-rule="evenodd" clip-rule="evenodd" d="M6.10723 23.4416C6.07206 23.5225 5.94723 23.5465 5.83352 23.4911C5.71768 23.4381 5.65262 23.3281 5.69018 23.2471C5.72456 23.164 5.84965 23.1411 5.96522 23.1963C6.08132 23.2495 6.14743 23.3606 6.10723 23.4416Z" fill="url(#paint1_linear_111_66)"/>
<path fill-rule="evenodd" clip-rule="evenodd" d="M6.75411 24.1753C6.67795 24.2472 6.52905 24.2138 6.42803 24.1003C6.32357 23.9871 6.30399 23.8356 6.38122 23.7627C6.45976 23.6909 6.60416 23.7245 6.70889 23.8378C6.81335 23.9524 6.83371 24.1027 6.75411 24.1753Z" fill="url(#paint2_linear_111_66)"/>
<path fill-rule="evenodd" clip-rule="evenodd" d="M7.3838 25.1109C7.28595 25.18 7.12595 25.1152 7.02704 24.9707C6.92918 24.8263 6.92919 24.6531 7.02915 24.5837C7.12833 24.5143 7.28595 24.5767 7.38618 24.72C7.48376 24.8666 7.48376 25.0401 7.3838 25.1109Z" fill="url(#paint3_linear_111_66)"/>
<path fill-rule="evenodd" clip-rule="evenodd" d="M8.24647 26.0147C8.15894 26.1128 7.97249 26.0865 7.83603 25.9525C7.69639 25.8215 7.65752 25.6357 7.74532 25.5375C7.83391 25.439 8.02142 25.4667 8.15894 25.5996C8.29752 25.7303 8.33983 25.9175 8.24647 26.0147Z" fill="url(#paint4_linear_111_66)"/>
<path fill-rule="evenodd" clip-rule="evenodd" d="M9.43656 26.5394C9.39795 26.6667 9.21838 26.7245 9.03748 26.6704C8.85685 26.6147 8.73864 26.4657 8.77514 26.3372C8.81269 26.2091 8.99305 26.1489 9.17527 26.2067C9.35563 26.2621 9.47411 26.4101 9.43656 26.5394Z" fill="url(#paint5_linear_111_66)"/>
<path fill-rule="evenodd" clip-rule="evenodd" d="M10.7435 26.6368C10.748 26.7708 10.5946 26.8819 10.4048 26.884C10.2138 26.8886 10.0594 26.7802 10.0573 26.6484C10.0573 26.5131 10.2072 26.4031 10.3981 26.3998C10.588 26.3961 10.7435 26.5037 10.7435 26.6368Z" fill="url(#paint6_linear_111_66)"/>
<path fill-rule="evenodd" clip-rule="evenodd" d="M11.9598 26.4262C11.9825 26.5569 11.8506 26.6911 11.662 26.7266C11.4766 26.7613 11.305 26.6807 11.2814 26.551C11.2584 26.417 11.3928 26.2828 11.5779 26.2481C11.7667 26.2148 11.9357 26.2933 11.9598 26.4262Z" fill="url(#paint7_linear_111_66)"/>
<defs>
<linearGradient id="paint0_linear_111_66" x1="42.5" y1="-11.5" x2="8" y2="35" gradientUnits="userSpaceOnUse">
<stop stop-color="white"/>
<stop offset="0.931499" stop-color="white" stop-opacity="0.1"/>
</linearGradient>
<linearGradient id="paint1_linear_111_66" x1="42.5" y1="-11.5" x2="8" y2="35" gradientUnits="userSpaceOnUse">
<stop stop-color="white"/>
<stop offset="0.931499" stop-color="white" stop-opacity="0.1"/>
</linearGradient>
<linearGradient id="paint2_linear_111_66" x1="42.5" y1="-11.5" x2="8" y2="35" gradientUnits="userSpaceOnUse">
<stop stop-color="white"/>
<stop offset="0.931499" stop-color="white" stop-opacity="0.1"/>
</linearGradient>
<linearGradient id="paint3_linear_111_66" x1="42.5" y1="-11.5" x2="8" y2="35" gradientUnits="userSpaceOnUse">
<stop stop-color="white"/>
<stop offset="0.931499" stop-color="white" stop-opacity="0.1"/>
</linearGradient>
<linearGradient id="paint4_linear_111_66" x1="42.5" y1="-11.5" x2="8" y2="35" gradientUnits="userSpaceOnUse">
<stop stop-color="white"/>
<stop offset="0.931499" stop-color="white" stop-opacity="0.1"/>
</linearGradient>
<linearGradient id="paint5_linear_111_66" x1="42.5" y1="-11.5" x2="8" y2="35" gradientUnits="userSpaceOnUse">
<stop stop-color="white"/>
<stop offset="0.931499" stop-color="white" stop-opacity="0.1"/>
</linearGradient>
<linearGradient id="paint6_linear_111_66" x1="42.5" y1="-11.5" x2="8" y2="35" gradientUnits="userSpaceOnUse">
<stop stop-color="white"/>
<stop offset="0.931499" stop-color="white" stop-opacity="0.1"/>
</linearGradient>
<linearGradient id="paint7_linear_111_66" x1="42.5" y1="-11.5" x2="8" y2="35" gradientUnits="userSpaceOnUse">
<stop stop-color="white"/>
<stop offset="0.931499" stop-color="white" stop-opacity="0.1"/>
</linearGradient>
</defs>
</svg>
