<svg width="32" height="32" viewBox="0 0 32 32" fill="none" xmlns="http://www.w3.org/2000/svg">
<path fill-rule="evenodd" clip-rule="evenodd" d="M0 16C0 7.16344 7.16344 0 16 0C24.8366 0 32 7.16344 32 16C32 24.8366 24.8366 32 16 32C7.16344 32 0 24.8366 0 16ZM11.8403 12.5852H8.2144V23.4797H11.8403V12.5852ZM12.0792 9.21513C12.0556 8.14694 11.2918 7.33333 10.0514 7.33333C8.81094 7.33333 8 8.14694 8 9.21513C8 10.2612 8.78697 11.0982 10.0043 11.0982H10.0275C11.2918 11.0982 12.0792 10.2612 12.0792 9.21513ZM24.9169 17.2332C24.9169 13.8869 23.1281 12.3294 20.7421 12.3294C18.8169 12.3294 17.955 13.3868 17.4738 14.1287V12.5855H13.8474C13.8952 13.6078 13.8474 23.48 13.8474 23.48H17.4738V17.3956C17.4738 17.07 17.4973 16.7452 17.5932 16.5121C17.8552 15.8616 18.4519 15.1882 19.4536 15.1882C20.7662 15.1882 21.2909 16.1872 21.2909 17.6512V23.4797H24.9167L24.9169 17.2332Z" fill="url(#paint0_linear_111_69)"/>
<defs>
<linearGradient id="paint0_linear_111_69" x1="42.5206" y1="-11.7358" x2="7.59628" y2="34.9584" gradientUnits="userSpaceOnUse">
<stop stop-color="white"/>
<stop offset="0.931499" stop-color="white" stop-opacity="0.1"/>
</linearGradient>
</defs>
</svg>
